<svg height="600" viewBox="0 0 900 600" width="900" xmlns="http://www.w3.org/2000/svg"><g stroke-linejoin="bevel"><path d="m495.7 295.9 6 6.2 28.7-31.3z" fill="#4c0403" stroke="#4c0403"/><path d="m501.7 302.1 26.7 8.8 2-40.1z" fill="#73040c" stroke="#73040c"/><path d="m528.4 310.9 19.7-10-17.7-30.1z" fill="#66040a" stroke="#66040a"/><path d="m530.4 270.8-25.3-31-9.4 56.1z" fill="#b8070d" stroke="#b8070d"/><path d="m553.4 346.2 9.7-46.1-15 .8z" fill="#8e040e" stroke="#8e040e"/><path d="m548.1 300.9 15-.8-32.7-29.3z" fill="#aa050e" stroke="#aa050e"/><path d="m530.4 270.8 37-48.2-62.3 17.2z" fill="#66040a" stroke="#66040a"/><path d="m495.7 295.9-6 47.3 12-41.1z" fill="#9c040e" stroke="#9c040e"/><path d="m501.7 302.1-12 41.1 38.7-32.3z" fill="#66040a" stroke="#66040a"/><path d="m528.4 310.9 25 35.3-5.3-45.3z" fill="#b8070d" stroke="#b8070d"/><path d="m526.1 357.2 27.3-11-25-35.3z" fill="#73040c" stroke="#73040c"/><path d="m489.7 343.2 36.4 14 2.3-46.3z" fill="#8e040e" stroke="#8e040e"/><path d="m563.1 300.1 4.3-77.5-37 48.2z" fill="#9c040e" stroke="#9c040e"/><path d="m553.4 346.2 38-35.1-28.3-11z" fill="#66040a" stroke="#66040a"/><path d="m563.1 300.1 77.1-34.3-72.8-43.2z" fill="#c60a0c" stroke="#c60a0c"/><path d="m436.7 196.6 1 43.2h67.4z" fill="#aa050e" stroke="#aa050e"/><path d="m505.1 239.8h-67.4l58 56.1z" fill="#73040c" stroke="#73040c"/><path d="m495.7 295.9-92.4 8.2 86.4 39.1z" fill="#4c0403" stroke="#4c0403"/><path d="m640.2 265.8-64.4-51-8.4 7.8z" fill="#66040a" stroke="#66040a"/><path d="m567.4 222.6-52.3-56-10 73.2z" fill="#aa050e" stroke="#aa050e"/><path d="m437.7 239.8-34.4 64.3 92.4-8.2z" fill="#8e040e" stroke="#8e040e"/><path d="m406.3 258.8-3 45.3 34.4-64.3z" fill="#d40d0a" stroke="#d40d0a"/><path d="m437.7 239.8-32.4 9.1 1 9.9z" fill="#9c040e" stroke="#9c040e"/><path d="m349.9 250.9 14 74.2 39.4-21z" fill="#c60a0c" stroke="#c60a0c"/><path d="m515.1 166.6-78.4 30 68.4 43.2z" fill="#66040a" stroke="#66040a"/><path d="m437.7 239.8-1-43.2-31.4 52.3z" fill="#8e040e" stroke="#8e040e"/><path d="m574.8 178.6-59.7-12 52.3 56z" fill="#b8070d" stroke="#b8070d"/><path d="m598.8 156.5-24 22.1 1 36.2z" fill="#aa050e" stroke="#aa050e"/><path d="m575.8 214.8-1-36.2-7.4 44z" fill="#c60a0c" stroke="#c60a0c"/><path d="m636.8 317.1-2-10.2-43.4 4.2z" fill="#9c040e" stroke="#9c040e"/><path d="m591.4 311.1 48.8-45.3-77.1 34.3z" fill="#4c0403" stroke="#4c0403"/><path d="m403.3 304.1 52 89.1 34.4-50z" fill="#66040a" stroke="#66040a"/><path d="m489.7 343.2-17 63.2 53.4-49.2z" fill="#4c0403" stroke="#4c0403"/><path d="m526.1 357.2 22.3 61.2 5-72.2z" fill="#d40d0a" stroke="#d40d0a"/><path d="m626.8 411.2 10-94.1-45.4-6z" fill="#590407" stroke="#590407"/><path d="m626.8 411.2-35.4-100.1-38 35.1z" fill="#66040a" stroke="#66040a"/><path d="m656.2 260.9-16 4.9-5.4 41.1z" fill="#c60a0c" stroke="#c60a0c"/><path d="m634.8 306.9 5.4-41.1-48.8 45.3z" fill="#73040c" stroke="#73040c"/><path d="m455.3 393.2 17.4 13.2 17-63.2z" fill="#66040a" stroke="#66040a"/><path d="m515.1 166.6-70.8-.1-7.6 30.1z" fill="#8e040e" stroke="#8e040e"/><path d="m436.7 196.6-38.8-17 7.4 69.3z" fill="#80040d" stroke="#80040d"/><path d="m472.7 406.4 75.7 12-22.3-61.2z" fill="#73040c" stroke="#73040c"/><path d="m692.2 347.2-36-86.3-21.4 46z" fill="#4c0403" stroke="#4c0403"/><path d="m640.2 265.8 16-4.9-80.4-46.1z" fill="#d40d0a" stroke="#d40d0a"/><path d="m574.8 178.6-44.7-40.1-15 28.1z" fill="#80040d" stroke="#80040d"/><path d="m515.1 166.6-71.4-57.3.6 57.2z" fill="#aa050e" stroke="#aa050e"/><path d="m443.7 109.3-12 47.2 12.6 10z" fill="#66040a" stroke="#66040a"/><path d="m444.3 166.5-18-7.9 10.4 38z" fill="#66040a" stroke="#66040a"/><path d="m431.7 156.5-5.4 2.1 18 7.9z" fill="#c60a0c" stroke="#c60a0c"/><path d="m656.2 260.9-57.4-104.4-23 58.3z" fill="#aa050e" stroke="#aa050e"/><path d="m574.8 178.6 22.6-41.1-67.3 1z" fill="#80040d" stroke="#80040d"/><path d="m349.9 250.9 53.4 53.2 3-45.3z" fill="#9c040e" stroke="#9c040e"/><path d="m403.3 304.1 5.6 103.1 46.4-14z" fill="#8e040e" stroke="#8e040e"/><path d="m482.1 479.5 24-37.1-33.4-36z" fill="#b8070d" stroke="#b8070d"/><path d="m357.6 244.9 48.7 13.9-1-9.9z" fill="#66040a" stroke="#66040a"/><path d="m426.3 158.6-28.4 21 38.8 17z" fill="#590407" stroke="#590407"/><path d="m426.3 459.5 46.4-53.1-17.4-13.2z" fill="#590407" stroke="#590407"/><path d="m472.7 406.4 33.4 36 42.3-24z" fill="#c60a0c" stroke="#c60a0c"/><path d="m359.9 187.8-2.3 57.1 47.7 4z" fill="#590407" stroke="#590407"/><path d="m363.9 325.1 45 82.1-5.6-103.1z" fill="#73040c" stroke="#73040c"/><path d="m597.4 137.5-64-17.2-3.3 18.2z" fill="#9c040e" stroke="#9c040e"/><path d="m530.1 138.5-86.4-29.2 71.4 57.3z" fill="#d40d0a" stroke="#d40d0a"/><path d="m506.1 442.4 79.3-7.9-37-16.1z" fill="#80040d" stroke="#80040d"/><path d="m548.4 418.4 78.4-7.2-73.4-65z" fill="#8e040e" stroke="#8e040e"/><path d="m306.2 202.8 43.7 48.1 7.7-6z" fill="#d40d0a" stroke="#d40d0a"/><path d="m357.6 244.9-7.7 6 56.4 7.9z" fill="#590407" stroke="#590407"/><path d="m636.2 143.6-38.8-6.1 1.4 19z" fill="#b8070d" stroke="#b8070d"/><path d="m598.8 156.5-1.4-19-22.6 41.1z" fill="#d40d0a" stroke="#d40d0a"/><path d="m585.4 434.5 41.4-23.3-78.4 7.2z" fill="#73040c" stroke="#73040c"/><path d="m720.5 245.9-31-7.1 44.4 46.3z" fill="#590407" stroke="#590407"/><path d="m692.2 347.2-57.4-40.3 2 10.2z" fill="#590407" stroke="#590407"/><path d="m656.2 260.9-20-117.3-37.4 12.9z" fill="#c60a0c" stroke="#c60a0c"/><path d="m403.9 135.5-44 52.3 38-8.2z" fill="#590407" stroke="#590407"/><path d="m397.9 179.6-38 8.2 45.4 61.1z" fill="#8e040e" stroke="#8e040e"/><path d="m626.8 411.2 56.4-61.1-46.4-33z" fill="#d40d0a" stroke="#d40d0a"/><path d="m431.7 156.5-27.8-21 22.4 23.1z" fill="#8e040e" stroke="#8e040e"/><path d="m426.3 158.6-22.4-23.1-6 44.1z" fill="#b8070d" stroke="#b8070d"/><path d="m429.3 112.3-25.4 23.2 27.8 21z" fill="#80040d" stroke="#80040d"/><path d="m689.5 238.8-53.3-95.2 20 117.3z" fill="#b8070d" stroke="#b8070d"/><path d="m597.4 137.5-42.3-43.2-21.7 26z" fill="#c60a0c" stroke="#c60a0c"/><path d="m533.4 120.3-89.7-11 86.4 29.2z" fill="#c60a0c" stroke="#c60a0c"/><path d="m689.5 360.1 2.7-12.9-9 2.9z" fill="#d40d0a" stroke="#d40d0a"/><path d="m683.2 350.1 9-2.9-55.4-30.1z" fill="#73040c" stroke="#73040c"/><path d="m652.8 424.4.4-12-26.4-1.2z" fill="#aa050e" stroke="#aa050e"/><path d="m626.8 411.2 26.4 1.2 30-62.3z" fill="#9c040e" stroke="#9c040e"/><path d="m653.2 412.4 36.3-52.3-6.3-10z" fill="#4c0403" stroke="#4c0403"/><path d="m443.7 109.3-14.4 3 2.4 44.2z" fill="#66040a" stroke="#66040a"/><path d="m552.4 86.2 2.7 8.1 76.7-55.1z" fill="#aa050e" stroke="#aa050e"/><path d="m533.4 120.3-64.7-64.1-25 53.1z" fill="#9c040e" stroke="#9c040e"/><path d="m291.6 372.2 50 3.2 22.3-50.3z" fill="#590407" stroke="#590407"/><path d="m363.9 325.1-22.3 50.3 67.3 31.8z" fill="#9c040e" stroke="#9c040e"/><path d="m385.3 457.4 41 2.1-17.4-52.3z" fill="#c60a0c" stroke="#c60a0c"/><path d="m408.9 407.2 17.4 52.3 29-66.3z" fill="#8e040e" stroke="#8e040e"/><path d="m506.1 442.4 32.3 85.3 47-93.2z" fill="#590407" stroke="#590407"/><path d="m311.2 280.1 6.4 6 32.3-35.2z" fill="#9c040e" stroke="#9c040e"/><path d="m349.9 250.9-32.3 35.2 46.3 39z" fill="#b8070d" stroke="#b8070d"/><path d="m608.8 490.5 44-66.1-26-13.2z" fill="#80040d" stroke="#80040d"/><path d="m653.2 412.4 33.3 14 3-66.3z" fill="#8e040e" stroke="#8e040e"/><path d="m608.8 490.5 18-79.3-41.4 23.3z" fill="#d40d0a" stroke="#d40d0a"/><path d="m426.3 459.5 55.8 20-9.4-73.1z" fill="#73040c" stroke="#73040c"/><path d="m341.6 375.4 24.3 45.1 43-13.3z" fill="#9c040e" stroke="#9c040e"/><path d="m653.8 96.3-98.7-2 42.3 43.2z" fill="#66040a" stroke="#66040a"/><path d="m555.1 94.3-2.7-8.1-19 34.1z" fill="#590407" stroke="#590407"/><path d="m443.7 109.3-25.4-80.1 11 83.1z" fill="#80040d" stroke="#80040d"/><path d="m306.2 202.8 5 77.3 38.7-29.2z" fill="#80040d" stroke="#80040d"/><path d="m317.6 286.1-26 86.1 72.3-47.1z" fill="#d40d0a" stroke="#d40d0a"/><path d="m733.9 285.1-44.4-46.3-33.3 22.1z" fill="#73040c" stroke="#73040c"/><path d="m689.5 238.8-11.3-106.5-42 11.3z" fill="#590407" stroke="#590407"/><path d="m733.9 285.1-77.7-24.2 36 86.3z" fill="#aa050e" stroke="#aa050e"/><path d="m480.7 501.5 19.4-3.8-18-18.2z" fill="#66040a" stroke="#66040a"/><path d="m482.1 479.5 18 18.2 6-55.3z" fill="#4c0403" stroke="#4c0403"/><path d="m365.9 420.5 19.4 36.9 23.6-50.2z" fill="#c60a0c" stroke="#c60a0c"/><path d="m426.3 459.5 54.4 42 1.4-22z" fill="#9c040e" stroke="#9c040e"/><path d="m349.9 451.4 35.4 6-19.4-36.9z" fill="#aa050e" stroke="#aa050e"/><path d="m406.9 495.7 73.8 5.8-54.4-42z" fill="#73040c" stroke="#73040c"/><path d="m716.9 382.4-24.7-35.2-2.7 12.9z" fill="#590407" stroke="#590407"/><path d="m750.5 367.2-16.6-82.1-41.7 62.1z" fill="#80040d" stroke="#80040d"/><path d="m314.2 123.3-2.6 70.5 48.3-6z" fill="#b8070d" stroke="#b8070d"/><path d="m359.9 187.8-50.3 9.8 48 47.3z" fill="#aa050e" stroke="#aa050e"/><path d="m314.2 123.3 45.7 64.5 44-52.3z" fill="#c60a0c" stroke="#c60a0c"/><path d="m311.6 193.8-2 3.8 50.3-9.8z" fill="#66040a" stroke="#66040a"/><path d="m259.8 197.6 46.4 5.2 3.4-5.2z" fill="#590407" stroke="#590407"/><path d="m309.6 197.6-3.4 5.2 51.4 42.1z" fill="#9c040e" stroke="#9c040e"/><path d="m628.2 495.7 58.3-69.3-33.7-2z" fill="#9c040e" stroke="#9c040e"/><path d="m652.8 424.4 33.7 2-33.3-14z" fill="#4c0403" stroke="#4c0403"/><path d="m749.5 215.6-71.3-83.3 11.3 106.5z" fill="#590407" stroke="#590407"/><path d="m636.2 143.6 17.6-47.3-56.4 41.2z" fill="#4c0403" stroke="#4c0403"/><path d="m686.5 426.4 30.4-44-27.4-22.3z" fill="#8e040e" stroke="#8e040e"/><path d="m628.2 495.7-19.4-5.2-15 38.2z" fill="#c60a0c" stroke="#c60a0c"/><path d="m538.4 527.7 70.4-37.2-23.4-56z" fill="#c60a0c" stroke="#c60a0c"/><path d="m678.2 132.3-17-20.8-25 32.1z" fill="#66040a" stroke="#66040a"/><path d="m517.1 48.2 16.3 72.1 19-34.1z" fill="#b8070d" stroke="#b8070d"/><path d="m517.1 48.2-48.4 8 64.7 64.1z" fill="#590407" stroke="#590407"/><path d="m429.3 112.3-63.4-27 38 50.2z" fill="#d40d0a" stroke="#d40d0a"/><path d="m726.9 467.7-29.7-40.2-10.7-1.1z" fill="#9c040e" stroke="#9c040e"/><path d="m686.5 426.4 10.7 1.1 19.7-45.1z" fill="#73040c" stroke="#73040c"/><path d="m286.2 421.4 63.7 30 16-30.9z" fill="#4c0403" stroke="#4c0403"/><path d="m385.3 457.4 21.6 38.3 19.4-36.2z" fill="#aa050e" stroke="#aa050e"/><path d="m286.2 421.4 79.7-.9-24.3-45.1z" fill="#590407" stroke="#590407"/><path d="m685.5 77.3-31.7 19 7.4 15.2z" fill="#d40d0a" stroke="#d40d0a"/><path d="m661.2 111.5-7.4-15.2-17.6 47.3z" fill="#590407" stroke="#590407"/><path d="m555.4 0-38.3 48.2 35.3 38z" fill="#80040d" stroke="#80040d"/><path d="m399.3 512.7 7.6-17-21.6-38.3z" fill="#c60a0c" stroke="#c60a0c"/><path d="m253.8 359.1 63.8-73-6.4-6z" fill="#66040a" stroke="#66040a"/><path d="m253.8 359.1 37.8 13.1 26-86.1z" fill="#aa050e" stroke="#aa050e"/><path d="m538.4 527.7-32.3-85.3-6 55.3z" fill="#c60a0c" stroke="#c60a0c"/><path d="m608.8 490.5 19.4 5.2 24.6-71.3z" fill="#aa050e" stroke="#aa050e"/><path d="m498.7 547.7 1.4-50-19.4 3.8z" fill="#8e040e" stroke="#8e040e"/><path d="m498.7 547.7 39.7-20-38.3-30z" fill="#73040c" stroke="#73040c"/><path d="m765.9 247.8-16.4-32.2-29 30.3z" fill="#d40d0a" stroke="#d40d0a"/><path d="m720.5 245.9 29-30.3-60 23.2z" fill="#aa050e" stroke="#aa050e"/><path d="m678.2 132.3 7.3-55-24.3 34.2z" fill="#8e040e" stroke="#8e040e"/><path d="m765.9 247.8-45.4-1.9 13.4 39.2z" fill="#73040c" stroke="#73040c"/><path d="m418.3 29.2-52.4 56.1 63.4 27z" fill="#d40d0a" stroke="#d40d0a"/><path d="m311.6 193.8-51.8 3.8h49.8z" fill="#4c0403" stroke="#4c0403"/><path d="m740.9 391.2 9.6-24-33.6 15.2z" fill="#66040a" stroke="#66040a"/><path d="m716.9 382.4 33.6-15.2-58.3-20z" fill="#9c040e" stroke="#9c040e"/><path d="m697.2 427.5 43.7-36.3-24-8.8z" fill="#80040d" stroke="#80040d"/><path d="m726.9 467.7 14-76.5-43.7 36.3z" fill="#73040c" stroke="#73040c"/><path d="m788.3 266.9-22.4-19.1-32 37.3z" fill="#c60a0c" stroke="#c60a0c"/><path d="m349.9 451.4 49.4 61.3-14-55.3z" fill="#b8070d" stroke="#b8070d"/><path d="m406.9 495.7 27.8 52.1 46-46.3z" fill="#aa050e" stroke="#aa050e"/><path d="m320.6 107.5-6.4 15.8 89.7 12.2z" fill="#c60a0c" stroke="#c60a0c"/><path d="m538.4 527.7 55.4 1 15-38.2z" fill="#d40d0a" stroke="#d40d0a"/><path d="m628.2 495.7 25 19.1 33.3-88.4z" fill="#4c0403" stroke="#4c0403"/><path d="m365.9 85.3-45.3 22.2 83.3 28z" fill="#d40d0a" stroke="#d40d0a"/><path d="m434.7 547.8 64-.1-18-46.2z" fill="#b8070d" stroke="#b8070d"/><path d="m538.4 527.7 19.7 40.1 35.7-39.1z" fill="#66040a" stroke="#66040a"/><path d="m249.8 385.4 36.4 36 5.4-49.2z" fill="#8e040e" stroke="#8e040e"/><path d="m291.6 372.2-5.4 49.2 55.4-46z" fill="#80040d" stroke="#80040d"/><path d="m361.6 545.8 30.7-5 7-28.1z" fill="#aa050e" stroke="#aa050e"/><path d="m249.2 126.5 10.6 71.1 51.8-3.8z" fill="#c60a0c" stroke="#c60a0c"/><path d="m306.2 202.8-60.4 25 65.4 52.3z" fill="#c60a0c" stroke="#c60a0c"/><path d="m249.2 126.5 62.4 67.3 2.6-70.5z" fill="#590407" stroke="#590407"/><path d="m721.5 97.5-36-20.2-7.3 55z" fill="#9c040e" stroke="#9c040e"/><path d="m653.8 96.3-22-57.1-76.7 55.1z" fill="#80040d" stroke="#80040d"/><path d="m721.5 97.5-43.3 34.8 84.1 17.3z" fill="#aa050e" stroke="#aa050e"/><path d="m593.8 528.7 59.4-13.9-25-19.1z" fill="#590407" stroke="#590407"/><path d="m228.5 348.1 25.3 11 57.4-79z" fill="#aa050e" stroke="#aa050e"/><path d="m678.2 59.2-46.4-20 22 57.1z" fill="#aa050e" stroke="#aa050e"/><path d="m441.3 0-23 29.2 50.4 27z" fill="#aa050e" stroke="#aa050e"/><path d="m468.7 56.2-50.4-27 25.4 80.1z" fill="#73040c" stroke="#73040c"/><path d="m365.9 85.3-32.3-21-13 43.2z" fill="#aa050e" stroke="#aa050e"/><path d="m504.1 0-35.4 56.2 48.4-8z" fill="#80040d" stroke="#80040d"/><path d="m259.8 197.6-14 30.2 60.4-25z" fill="#80040d" stroke="#80040d"/><path d="m245.8 227.8-4.6 23.1 70 29.2z" fill="#b8070d" stroke="#b8070d"/><path d="m259.8 197.6-9.6 9-4.4 21.2z" fill="#b8070d" stroke="#b8070d"/><path d="m224.5 174.5 25.7 32.1 9.6-9z" fill="#aa050e" stroke="#aa050e"/><path d="m817.3 295.1-29-28.2-54.4 18.2z" fill="#8e040e" stroke="#8e040e"/><path d="m765.9 247.8 25 7.1-41.4-39.3z" fill="#66040a" stroke="#66040a"/><path d="m392.3 540.8 42.4 7-35.4-35.1z" fill="#8e040e" stroke="#8e040e"/><path d="m399.3 512.7 35.4 35.1-27.8-52.1z" fill="#66040a" stroke="#66040a"/><path d="m788.3 266.9 2.6-12-25-7.1z" fill="#b8070d" stroke="#b8070d"/><path d="m751.5 18.2-73.3 41 7.3 18.1z" fill="#590407" stroke="#590407"/><path d="m685.5 77.3-7.3-18.1-24.4 37.1z" fill="#b8070d" stroke="#b8070d"/><path d="m762.3 149.6-84.1-17.3 71.3 83.3z" fill="#c60a0c" stroke="#c60a0c"/><path d="m740.9 391.2 38.4-18-28.8-6z" fill="#66040a" stroke="#66040a"/><path d="m750.5 367.2 66.8-72.1-83.4-10z" fill="#c60a0c" stroke="#c60a0c"/><path d="m788.3 266.9 18-4.1-15.4-7.9z" fill="#8e040e" stroke="#8e040e"/><path d="m774.3 416.4 5-43.2-38.4 18z" fill="#73040c" stroke="#73040c"/><path d="m686.5 520.8 40.4-53.1-40.4-41.3z" fill="#73040c" stroke="#73040c"/><path d="m253.8 359.1-4 26.3 41.8-13.2z" fill="#66040a" stroke="#66040a"/><path d="m248.2 382.2 1.6 3.2 4-26.3z" fill="#9c040e" stroke="#9c040e"/><path d="m786.9 142.6-24.6 7-12.8 66z" fill="#9c040e" stroke="#9c040e"/><path d="m228.5 348.1 19.7 34.1 5.6-23.1z" fill="#8e040e" stroke="#8e040e"/><path d="m299.6 471.5 50.3-20.1-63.7-30z" fill="#73040c" stroke="#73040c"/><path d="m361.6 545.8 37.7-33.1-49.4-61.3z" fill="#8e040e" stroke="#8e040e"/><path d="m555.4 0h-45.7l7.4 48.2z" fill="#8e040e" stroke="#8e040e"/><path d="m372.9 0-39.3 64.3 32.3 21z" fill="#590407" stroke="#590407"/><path d="m320.6 107.5-71.4 19 65-3.2z" fill="#aa050e" stroke="#aa050e"/><path d="m244.2 481.5 55.4-10-13.4-50.1z" fill="#80040d" stroke="#80040d"/><path d="m509.7 0h-5.6l13 48.2z" fill="#4c0403" stroke="#4c0403"/><path d="m546.4 571.8-8-44.1-39.7 20z" fill="#b8070d" stroke="#b8070d"/><path d="m546.4 571.8 11.7-4-19.7-40.1z" fill="#80040d" stroke="#80040d"/><path d="m593.8 528.7 28 50.1 31.4-64z" fill="#b8070d" stroke="#b8070d"/><path d="m605.8 0h-50.4l-3 86.2z" fill="#d40d0a" stroke="#d40d0a"/><path d="m605.8 0-53.4 86.2 79.4-47z" fill="#c60a0c" stroke="#c60a0c"/><path d="m529.1 600 17.3-28.2-47.7-24.1z" fill="#b8070d" stroke="#b8070d"/><path d="m529.1 600-30.4-52.3-13 52.3z" fill="#590407" stroke="#590407"/><path d="m686.5 520.8 42.4-40.3-2-12.8z" fill="#66040a" stroke="#66040a"/><path d="m726.9 467.7 47.4-51.3-33.4-25.2z" fill="#8e040e" stroke="#8e040e"/><path d="m686.5 520.8v-94.4l-33.3 88.4z" fill="#c60a0c" stroke="#c60a0c"/><path d="m204.5 208.8 18.3 56.1 18.4-14z" fill="#c60a0c" stroke="#c60a0c"/><path d="m241.2 250.9-18.4 14 88.4 15.2z" fill="#aa050e" stroke="#aa050e"/><path d="m204.5 208.8 36.7 42.1 4.6-23.1z" fill="#73040c" stroke="#73040c"/><path d="m812.6 443.4-38.3-27 27 73.3z" fill="#aa050e" stroke="#aa050e"/><path d="m222.8 264.9 5.7 83.2 82.7-68z" fill="#8e040e" stroke="#8e040e"/><path d="m248.2 382.2-94.7 28.2 96.3-25z" fill="#66040a" stroke="#66040a"/><path d="m621.8 578.8 64.7-58-33.3-6z" fill="#590407" stroke="#590407"/><path d="m817.3 295.1-11-32.3-18 4.1z" fill="#590407" stroke="#590407"/><path d="m839.3 167.5-52.4-24.9-37.4 73z" fill="#4c0403" stroke="#4c0403"/><path d="m817.3 295.1-66.8 72.1 28.8 6z" fill="#b8070d" stroke="#b8070d"/><path d="m504.1 0h-62.8l27.4 56.2z" fill="#9c040e" stroke="#9c040e"/><path d="m418.3 29.2-45.4-29.2-7 85.3z" fill="#b8070d" stroke="#b8070d"/><path d="m710.5 0h-62.3l30 59.2z" fill="#d40d0a" stroke="#d40d0a"/><path d="m762.3 149.6 1.6-28.3-42.4-23.8z" fill="#c60a0c" stroke="#c60a0c"/><path d="m786.9 142.6-23-21.3-1.6 28.3z" fill="#8e040e" stroke="#8e040e"/><path d="m648.2 0-16.4 39.2 46.4 20z" fill="#73040c" stroke="#73040c"/><path d="m648.2 0h-42.4l26 39.2z" fill="#8e040e" stroke="#8e040e"/><path d="m346.9 549.8 14.7-4-11.7-94.4z" fill="#4c0403" stroke="#4c0403"/><path d="m419.3 600h66.4l-51-52.2z" fill="#4c0403" stroke="#4c0403"/><path d="m441.3 0-40.4 3.2 17.4 26z" fill="#aa050e" stroke="#aa050e"/><path d="m824.6 333.1-7.3-38-38 78.1z" fill="#80040d" stroke="#80040d"/><path d="m839.3 167.5-89.8 48.1 41.4 39.3z" fill="#8e040e" stroke="#8e040e"/><path d="m686.5 520.8 46-25.1-3.6-15.2z" fill="#b8070d" stroke="#b8070d"/><path d="m728.9 480.5 9.6 13-11.6-25.8z" fill="#b8070d" stroke="#b8070d"/><path d="m737.9 530.8.6-37.3-6 2.2z" fill="#590407" stroke="#590407"/><path d="m732.5 495.7 6-2.2-9.6-13z" fill="#c60a0c" stroke="#c60a0c"/><path d="m175.5 340.2 39.3 16 13.7-8.1z" fill="#c60a0c" stroke="#c60a0c"/><path d="m228.5 348.1-13.7 8.1 33.4 26z" fill="#aa050e" stroke="#aa050e"/><path d="m223.5 464.7 20.7 16.8 42-60.1z" fill="#b8070d" stroke="#b8070d"/><path d="m797.9 98.5-11 44.1 50.7 2.9z" fill="#c60a0c" stroke="#c60a0c"/><path d="m290.6 55.2 30 52.3 13-43.2z" fill="#c60a0c" stroke="#c60a0c"/><path d="m290.6 55.2-41.4 71.3 71.4-19z" fill="#66040a" stroke="#66040a"/><path d="m250.2 206.6-45.7 2.2 41.3 19z" fill="#4c0403" stroke="#4c0403"/><path d="m249.2 126.5-23.4 46 34 25.1z" fill="#aa050e" stroke="#aa050e"/><path d="m163.5 317.9 12 22.3 53 7.9z" fill="#c60a0c" stroke="#c60a0c"/><path d="m205.8 128.3 18.7 46.2 1.3-2z" fill="#c60a0c" stroke="#c60a0c"/><path d="m225.8 172.5-1.3 2 35.3 23.1z" fill="#73040c" stroke="#73040c"/><path d="m299.6 471.5 47.3 78.3 3-98.4z" fill="#66040a" stroke="#66040a"/><path d="m419.3 600 15.4-52.2-42.4-7z" fill="#8e040e" stroke="#8e040e"/><path d="m296.6 541.7 50.3 8.1-47.3-78.3z" fill="#d40d0a" stroke="#d40d0a"/><path d="m600.4 600 21.4-21.2-63.7-11z" fill="#aa050e" stroke="#aa050e"/><path d="m558.1 567.8 63.7 11-28-50.1z" fill="#80040d" stroke="#80040d"/><path d="m686.5 520.8 51.4 10-5.4-35.1z" fill="#590407" stroke="#590407"/><path d="m710.5 0 41 18.2-24.6-18.2z" fill="#66040a" stroke="#66040a"/><path d="m797.9 98.5-76.4-1 42.4 23.8z" fill="#590407" stroke="#590407"/><path d="m843.6 329.2-19 3.9 75.4 55.1z" fill="#aa050e" stroke="#aa050e"/><path d="m812.6 443.4 12-110.3-45.3 40.1z" fill="#80040d" stroke="#80040d"/><path d="m485.7 600 13-52.3-64 .1z" fill="#73040c" stroke="#73040c"/><path d="m546.4 571.8-17.3 28.2 29-32.2z" fill="#66040a" stroke="#66040a"/><path d="m419.3 600-27-59.2-33.4 59.2z" fill="#aa050e" stroke="#aa050e"/><path d="m441.3 0h-68.4l28 3.2z" fill="#aa050e" stroke="#aa050e"/><path d="m400.9 3.2-28-3.2 45.4 29.2z" fill="#66040a" stroke="#66040a"/><path d="m148.5 200.6 56 8.2-43.4-64.2z" fill="#73040c" stroke="#73040c"/><path d="m224.5 174.5-20 34.3 45.7-2.2z" fill="#d40d0a" stroke="#d40d0a"/><path d="m294.6 0-4 55.2 43 9.1z" fill="#80040d" stroke="#80040d"/><path d="m529.1 600h71.3l-42.3-32.2z" fill="#80040d" stroke="#80040d"/><path d="m741.9 600-4-69.2-51.4-10z" fill="#8e040e" stroke="#8e040e"/><path d="m358.9 600 33.4-59.2-30.7 5z" fill="#4c0403" stroke="#4c0403"/><path d="m812.6 443.4-33.3-70.2-5 43.2z" fill="#aa050e" stroke="#aa050e"/><path d="m824.6 333.1 19-3.9-26.3-34.1z" fill="#66040a" stroke="#66040a"/><path d="m817.3 295.1 36.3-72.3-47.3 40z" fill="#8e040e" stroke="#8e040e"/><path d="m632.2 600 54.3-79.2-64.7 58z" fill="#73040c" stroke="#73040c"/><path d="m801.3 489.7-27-73.3-47.4 51.3z" fill="#9c040e" stroke="#9c040e"/><path d="m223.5 464.7 62.7-43.3-36.4-36z" fill="#b8070d" stroke="#b8070d"/><path d="m346.9 549.8 12 50.2 2.7-54.2z" fill="#d40d0a" stroke="#d40d0a"/><path d="m244.2 481.5 29 37.3 26.4-47.3z" fill="#aa050e" stroke="#aa050e"/><path d="m284.2 533.7 12.4 8 3-70.2z" fill="#80040d" stroke="#80040d"/><path d="m600.4 600h31.4l-10-21.2z" fill="#73040c" stroke="#73040c"/><path d="m631.8 600h.4l-10.4-21.2z" fill="#73040c" stroke="#73040c"/><path d="m818.6 453.5-6-10.1-11.3 46.3z" fill="#b8070d" stroke="#b8070d"/><path d="m274.8 543.7 9.4-10-11-14.9z" fill="#d40d0a" stroke="#d40d0a"/><path d="m273.2 518.8 11 14.9 15.4-62.2z" fill="#8e040e" stroke="#8e040e"/><path d="m853.6 222.8-62.7 32.1 15.4 7.9z" fill="#80040d" stroke="#80040d"/><path d="m786.9 142.6 11-44.1-34 22.8z" fill="#4c0403" stroke="#4c0403"/><path d="m153.5 410.4 70 54.3 26.3-79.3z" fill="#8e040e" stroke="#8e040e"/><path d="m244.2 481.5-6.4 18 35.4 19.3z" fill="#b8070d" stroke="#b8070d"/><path d="m163.5 317.9 65 30.2-5.7-83.2z" fill="#d40d0a" stroke="#d40d0a"/><path d="m214.8 356.2-61.3 54.2 94.7-28.2z" fill="#aa050e" stroke="#aa050e"/><path d="m221.5 56.3-15.7 72 43.4-1.8z" fill="#9c040e" stroke="#9c040e"/><path d="m249.2 126.5-43.4 1.8 20 44.2z" fill="#80040d" stroke="#80040d"/><path d="m129.7 224.8 33.8 93.1 59.3-53z" fill="#9c040e" stroke="#9c040e"/><path d="m900 271.9-46.4-49.1-36.3 72.3z" fill="#66040a" stroke="#66040a"/><path d="m710.5 0-32.3 59.2 73.3-41z" fill="#4c0403" stroke="#4c0403"/><path d="m853.6 222.8-14.3-55.3-48.4 87.4z" fill="#4c0403" stroke="#4c0403"/><path d="m801.3 489.7-74.4-22 11.6 25.8z" fill="#66040a" stroke="#66040a"/><path d="m900 388.2v-66.1l-56.4 7.1z" fill="#73040c" stroke="#73040c"/><path d="m210.5 487.5 27.3 12 6.4-18z" fill="#b8070d" stroke="#b8070d"/><path d="m294.6 0-31.4 39.2 27.4 16z" fill="#4c0403" stroke="#4c0403"/><path d="m290.6 55.2-69.1 1.1 27.7 70.2z" fill="#c60a0c" stroke="#c60a0c"/><path d="m274.8 543.7 21.8-2-12.4-8z" fill="#b8070d" stroke="#b8070d"/><path d="m296.6 600 50.3-50.2-50.3-8.1z" fill="#b8070d" stroke="#b8070d"/><path d="m296.6 600h62.3l-12-50.2z" fill="#590407" stroke="#590407"/><path d="m144.1 334.2 19.4-16.3-48.4-37z" fill="#73040c" stroke="#73040c"/><path d="m175.5 340.2-10.4 10.9 49.7 5.1z" fill="#c60a0c" stroke="#c60a0c"/><path d="m853.6 182.6-16-37.1 1.7 22z" fill="#d40d0a" stroke="#d40d0a"/><path d="m839.3 167.5-1.7-22-50.7-2.9z" fill="#590407" stroke="#590407"/><path d="m252.8 549.8 22-6.1-1.6-24.9z" fill="#73040c" stroke="#73040c"/><path d="m798.3 540.8 3-51.1-63.4 41.1z" fill="#80040d" stroke="#80040d"/><path d="m737.9 530.8 63.4-41.1-62.8 3.8z" fill="#8e040e" stroke="#8e040e"/><path d="m853.6 222.8v-40.2l-14.3-15.1z" fill="#9c040e" stroke="#9c040e"/><path d="m144.1 334.2 21 16.9 10.4-10.9z" fill="#80040d" stroke="#80040d"/><path d="m223.5 464.7-13 22.8 33.7-6z" fill="#73040c" stroke="#73040c"/><path d="m751.5 18.2-30 79.3 76.4 1z" fill="#c60a0c" stroke="#c60a0c"/><path d="m751.5 18.2-66 59.1 36 20.2z" fill="#b8070d" stroke="#b8070d"/><path d="m808.3 80.3-56.8-62.1 46.4 80.3z" fill="#b8070d" stroke="#b8070d"/><path d="m855.6 116.3-47.3-36-10.4 18.2z" fill="#d40d0a" stroke="#d40d0a"/><path d="m372.9 0h-78.3l39 64.3z" fill="#aa050e" stroke="#aa050e"/><path d="m153.5 410.4 57 77.1 13-22.8z" fill="#b8070d" stroke="#b8070d"/><path d="m237.8 499.5 15 50.3 20.4-31z" fill="#9c040e" stroke="#9c040e"/><path d="m773.3 16.2-13.4-5-8.4 7z" fill="#4c0403" stroke="#4c0403"/><path d="m751.5 18.2 8.4-7-33-11.2z" fill="#73040c" stroke="#73040c"/><path d="m263.2 39.2-41.7 17.1 69.1-1.1z" fill="#590407" stroke="#590407"/><path d="m129.7 224.8 93.1 40.1-18.3-56.1z" fill="#8e040e" stroke="#8e040e"/><path d="m224.5 22.2-3 34.1 41.7-17.1z" fill="#aa050e" stroke="#aa050e"/><path d="m294.6 0-22.8 3.2-8.6 36z" fill="#73040c" stroke="#73040c"/><path d="m197.5 565.8 55.3-16-15-50.3z" fill="#d40d0a" stroke="#d40d0a"/><path d="m274.8 543.7 21.8 56.3v-58.3z" fill="#73040c" stroke="#73040c"/><path d="m163.5 317.9-19.4 16.3 31.4 6z" fill="#b8070d" stroke="#b8070d"/><path d="m165.1 351.1-11.6 59.3 61.3-54.2z" fill="#b8070d" stroke="#b8070d"/><path d="m204.5 208.8 20-34.3-63.4-29.9z" fill="#9c040e" stroke="#9c040e"/><g fill="#8e040e" stroke="#8e040e"><path d="m808.3 80.3-35-64.1-21.8 2z"/><path d="m161.1 144.6 63.4 29.9-18.7-46.2z"/><path d="m900 322.1-11.4-19.2-45 26.3z"/></g><path d="m843.6 329.2 45-26.3-71.3-7.8z" fill="#590407" stroke="#590407"/><path d="m853.6 222.8 46.4-33.2-46.4-7z" fill="#8e040e" stroke="#8e040e"/><path d="m142.1 134.3 19 10.3 44.7-16.3z" fill="#66040a" stroke="#66040a"/><path d="m900 125.5-44.4-9.2-18 29.2z" fill="#9c040e" stroke="#9c040e"/><path d="m837.6 145.5 18-29.2-57.7-17.8z" fill="#aa050e" stroke="#aa050e"/><path d="m879.6 15.2-108.3-15.2 2 16.2z" fill="#4c0403" stroke="#4c0403"/><path d="m900 125.5-62.4 20 16 37.1z" fill="#590407" stroke="#590407"/><path d="m144.1 407.4 9.4 3 11.6-59.3z" fill="#8e040e" stroke="#8e040e"/><path d="m197.5 565.8 55.7 34.2-.4-50.2z" fill="#80040d" stroke="#80040d"/><path d="m801.3 489.7 40 1.8-22.7-38z" fill="#c60a0c" stroke="#c60a0c"/><path d="m900 388.2-75.4-55.1-12 110.3z" fill="#9c040e" stroke="#9c040e"/><path d="m748.5 600 49.8-59.2-60.4-10z" fill="#c60a0c" stroke="#c60a0c"/><path d="m253.2 600h43.4l-21.8-56.3z" fill="#8e040e" stroke="#8e040e"/><path d="m879.6 15.2-106.3 1 35 64.1z" fill="#4c0403" stroke="#4c0403"/><path d="m773.3 16.2-2-16.2-11.4 11.2z" fill="#d40d0a" stroke="#d40d0a"/><path d="m759.9 11.2 11.4-11.2h-44.4z" fill="#4c0403" stroke="#4c0403"/><path d="m888.6 302.9 11.4-31-82.7 23.2z" fill="#c60a0c" stroke="#c60a0c"/><path d="m900 271.9v-13.1l-46.4-36z" fill="#c60a0c" stroke="#c60a0c"/><path d="m798.3 540.8 43-49.3-40-1.8z" fill="#590407" stroke="#590407"/><path d="m888.6 302.9 11.4 19.2v-50.2z" fill="#66040a" stroke="#66040a"/><path d="m900 388.2-87.4 55.2 87.4 4z" fill="#8e040e" stroke="#8e040e"/><path d="m108.1 160.5 21.6 64.3 18.8-24.2z" fill="#80040d" stroke="#80040d"/><path d="m148.5 200.6-18.8 24.2 74.8-16z" fill="#80040d" stroke="#80040d"/><path d="m144.1 334.2v73.2l21-56.3z" fill="#9c040e" stroke="#9c040e"/><path d="m632.2 600h109.7l-55.4-79.2z" fill="#9c040e" stroke="#9c040e"/><path d="m126.7 410.2 17.4-2.8v-73.2z" fill="#73040c" stroke="#73040c"/><path d="m153.5 410.4-27.4 23.1 84.4 54z" fill="#aa050e" stroke="#aa050e"/><path d="m294.6 0h-47.4l24.6 3.2z" fill="#9c040e" stroke="#9c040e"/><path d="m271.8 3.2-24.6-3.2 16 39.2z" fill="#73040c" stroke="#73040c"/><path d="m221.5 56.3-79.4 78 63.7-6z" fill="#8e040e" stroke="#8e040e"/><path d="m247.2 0-22.7 22.2 38.7 17z" fill="#73040c" stroke="#73040c"/><path d="m741.9 600h6.6l-10.6-69.2z" fill="#590407" stroke="#590407"/><path d="m900 477.5v-30.1l-58.7 44.1z" fill="#4c0403" stroke="#4c0403"/><path d="m900 258.8v-69.2l-46.4 33.2z" fill="#b8070d" stroke="#b8070d"/><path d="m129.7 224.8-14.6 56.1 48.4 37z" fill="#9c040e" stroke="#9c040e"/><path d="m247.2 0h-14.4l-8.3 22.2z" fill="#8e040e" stroke="#8e040e"/><path d="m167.1 4.2-25 130.1 79.4-78z" fill="#c60a0c" stroke="#c60a0c"/><path d="m900 447.4-87.4-4 6 10.1z" fill="#d40d0a" stroke="#d40d0a"/><path d="m108.1 160.5 34-26.2-56.4 17.2z" fill="#c60a0c" stroke="#c60a0c"/><path d="m161.1 144.6-53 15.9 40.4 40.1z" fill="#b8070d" stroke="#b8070d"/><path d="m129.7 224.8-20.6 44 6 12.1z" fill="#590407" stroke="#590407"/><path d="m97.7 281.1-19-4.2 4.7 7z" fill="#4c0403" stroke="#4c0403"/><path d="m69.4 382.2 57.3 28 17.4-76z" fill="#c60a0c" stroke="#c60a0c"/><path d="m97.7 281.1 46.4 53.1-29-53.3z" fill="#8e040e" stroke="#8e040e"/><path d="m144.1 407.4-18 26.1 27.4-23.1z" fill="#8e040e" stroke="#8e040e"/><path d="m252.8 549.8.4 50.2 21.6-56.3z" fill="#c60a0c" stroke="#c60a0c"/><path d="m197.5 565.8 40.3-66.3-27.3-12z" fill="#c60a0c" stroke="#c60a0c"/><path d="m79.7 421.5 46.4 12 .6-23.3z" fill="#80040d" stroke="#80040d"/><path d="m126.7 410.2-.6 23.3 18-26.1z" fill="#80040d" stroke="#80040d"/><path d="m97.7 281.1 11.4-12.3-30.4 8.1z" fill="#b8070d" stroke="#b8070d"/><path d="m109.1 268.8-11.4 12.3 17.4-.2z" fill="#73040c" stroke="#73040c"/><path d="m900 189.6v-64.1l-46.4 57.1z" fill="#d40d0a" stroke="#d40d0a"/><path d="m855.6 116.3 44.4-38-91.7 2z" fill="#4c0403" stroke="#4c0403"/><path d="m841.3 491.5 58.7-44.1-81.4 6.1z" fill="#b8070d" stroke="#b8070d"/><path d="m900 477.5-58.7 14 52.3 2.2z" fill="#9c040e" stroke="#9c040e"/><path d="m138.1 543.7 59.4 22.1 13-78.3z" fill="#66040a" stroke="#66040a"/><path d="m142.1 134.3-34 26.2 53-15.9z" fill="#aa050e" stroke="#aa050e"/><path d="m86.4 161.5 21.7-1-22.4-9z" fill="#80040d" stroke="#80040d"/><path d="m78.7 276.9 30.4-8.1-41.4-65.2z" fill="#9c040e" stroke="#9c040e"/><path d="m97.7 281.1-14.3 2.8 60.7 50.3z" fill="#b8070d" stroke="#b8070d"/><path d="m893.6 493.7-52.3-2.2 58.7 26.3z" fill="#c60a0c" stroke="#c60a0c"/><path d="m900 517.8-58.7-26.3 37.3 89.3z" fill="#9c040e" stroke="#9c040e"/><path d="m900 125.5v-41.3l-44.4 32.1z" fill="#9c040e" stroke="#9c040e"/><path d="m67.7 203.6 41.4 65.2 20.6-44z" fill="#4c0403" stroke="#4c0403"/><path d="m57.4 354.1 12 28.1 74.7-48z" fill="#c60a0c" stroke="#c60a0c"/><path d="m748.5 600h67.8l-18-59.2z" fill="#8e040e" stroke="#8e040e"/><path d="m900 84.2v-5.9l-44.4 38z" fill="#590407" stroke="#590407"/><path d="m893.6 493.7h6.4v-16.2z" fill="#590407" stroke="#590407"/><path d="m900 517.8v-24.1h-6.4z" fill="#66040a" stroke="#66040a"/><path d="m167.1 4.2 54.4 52.1 3-34.1z" fill="#80040d" stroke="#80040d"/><path d="m108.1 160.5-40.4 43.1 62 21.2z" fill="#590407" stroke="#590407"/><path d="m232.8 0-65.7 4.2 57.4 18z" fill="#66040a" stroke="#66040a"/><path d="m74.7 133.3 11 18.2 56.4-17.2z" fill="#c60a0c" stroke="#c60a0c"/><path d="m86.4 161.5-18.7 42.1 40.4-43.1z" fill="#b8070d" stroke="#b8070d"/><path d="m193.5 600h.3l3.7-34.2z" fill="#aa050e" stroke="#aa050e"/><path d="m197.5 565.8-3.7 34.2h59.4z" fill="#73040c" stroke="#73040c"/><path d="m126.7 559.8 66.8 40.2 4-34.2z" fill="#590407" stroke="#590407"/><path d="m878.6 580.8-37.3-89.3-43 49.3z" fill="#4c0403" stroke="#4c0403"/><path d="m232.8 0h-71.3l5.6 4.2z" fill="#9c040e" stroke="#9c040e"/><path d="m167.1 4.2-16-4.2-9 134.3z" fill="#d40d0a" stroke="#d40d0a"/><path d="m51.4 201.6 16.3 2 18.7-42.1z" fill="#66040a" stroke="#66040a"/><path d="m900 78.3-20.4-63.1-71.3 65.1z" fill="#80040d" stroke="#80040d"/><path d="m72.7 505.7 60.4 27.1-7-99.3z" fill="#4c0403" stroke="#4c0403"/><path d="m126.1 433.5 7 99.3 77.4-45.3z" fill="#d40d0a" stroke="#d40d0a"/><path d="m57.4 354.1 26-70.2-83.4 21z" fill="#d40d0a" stroke="#d40d0a"/><path d="m57.4 354.1 86.7-19.9-60.7-50.3z" fill="#590407" stroke="#590407"/><path d="m69.4 382.2 10.3 39.3 47-11.3z" fill="#d40d0a" stroke="#d40d0a"/><path d="m126.7 559.8 11.4-16.1-5-10.9z" fill="#9c040e" stroke="#9c040e"/><path d="m133.1 532.8 5 10.9 72.4-56.2z" fill="#73040c" stroke="#73040c"/><path d="m61.4 413.4 21.3 25-3-16.9z" fill="#66040a" stroke="#66040a"/><path d="m79.7 421.5 3 16.9 43.4-4.9z" fill="#73040c" stroke="#73040c"/><path d="m161.5 0h-10.4l16 4.2z" fill="#80040d" stroke="#80040d"/><path d="m0 304.9 83.4-21-4.7-7z" fill="#aa050e" stroke="#aa050e"/><path d="m69.4 382.2-8 31.2 18.3 8.1z" fill="#4c0403" stroke="#4c0403"/><path d="m64.7 87.2 10 46.1 67.4 1z" fill="#8e040e" stroke="#8e040e"/><path d="m85.7 151.5-11-18.2 11.7 28.2z" fill="#d40d0a" stroke="#d40d0a"/><path d="m51.4 201.6v16.2l16.3-14.2z" fill="#4c0403" stroke="#4c0403"/><path d="m67.7 203.6-16.3 14.2 27.3 59.1z" fill="#c60a0c" stroke="#c60a0c"/><path d="m900 0h-13.4l-7 15.2z" fill="#8e040e" stroke="#8e040e"/><path d="m879.6 15.2 7-15.2h-115.3z" fill="#aa050e" stroke="#aa050e"/><path d="m74.7 133.3-23.3 68.3 35-40.1z" fill="#8e040e" stroke="#8e040e"/><path d="m816.3 600 62.3-19.2-80.3-40z" fill="#80040d" stroke="#80040d"/><path d="m0 375.2 61.4 38.2 8-31.2z" fill="#d40d0a" stroke="#d40d0a"/><path d="m72.7 505.7 54 54.1 6.4-27z" fill="#9c040e" stroke="#9c040e"/><path d="m72.7 505.7 53.4-72.2-43.4 4.9z" fill="#590407" stroke="#590407"/><path d="m138.1 543.7-11.4 16.1 70.8 6z" fill="#b8070d" stroke="#b8070d"/><path d="m900 78.3v-78.3l-20.4 15.2z" fill="#4c0403" stroke="#4c0403"/><path d="m151.1 0-86.4 87.2 77.4 47.1z" fill="#c60a0c" stroke="#c60a0c"/><path d="m0 177.5v57.3l51.4-33.2z" fill="#590407" stroke="#590407"/><path d="m816.3 600h74.3l-12-19.2z" fill="#4c0403" stroke="#4c0403"/><path d="m878.6 580.8 21.4 19.2v-82.2z" fill="#73040c" stroke="#73040c"/><path d="m63.4 501.5 9.3 4.2 10-67.3z" fill="#8e040e" stroke="#8e040e"/><path d="m151.1 0h-44.4l-42 87.2z" fill="#d40d0a" stroke="#d40d0a"/><path d="m890.6 600h9.4l-21.4-19.2z" fill="#590407" stroke="#590407"/><path d="m53.4 500.7 10 .8 19.3-63.1z" fill="#aa050e" stroke="#aa050e"/><path d="m109.1 600h.6l17-40.2z" fill="#aa050e" stroke="#aa050e"/><path d="m53.4 500.7 29.3-62.3-21.3-25z" fill="#80040d" stroke="#80040d"/><path d="m53.4 500.7 8-87.3h-61.4z" fill="#c60a0c" stroke="#c60a0c"/><path d="m0 375.2 69.4 7-12-28.1z" fill="#d40d0a" stroke="#d40d0a"/><path d="m63.4 501.5-10-.8 19.3 5z" fill="#73040c" stroke="#73040c"/><path d="m109.1 600 17.6-40.2-54-54.1z" fill="#aa050e" stroke="#aa050e"/><path d="m126.7 559.8-17 40.2h83.8z" fill="#b8070d" stroke="#b8070d"/><path d="m35.4 600h73.7l-36.4-94.3z" fill="#9c040e" stroke="#9c040e"/><path d="m0 234.8 78.7 42.1-27.3-59.1z" fill="#b8070d" stroke="#b8070d"/><path d="m0 234.8v67.3l78.7-25.2z" fill="#d40d0a" stroke="#d40d0a"/><path d="m0 234.8 51.4-17v-16.2z" fill="#590407" stroke="#590407"/><path d="m0 302.1v2.8l78.7-28z" fill="#d40d0a" stroke="#d40d0a"/><path d="m0 177.5 51.4 24.1-51.4-32z" fill="#aa050e" stroke="#aa050e"/><path d="m106.7 0-44.3 27.2 2.3 60z" fill="#590407" stroke="#590407"/><path d="m64.7 87.2-30.3-3.9 40.3 50z" fill="#590407" stroke="#590407"/><path d="m62.4 27.2-28 56.1 30.3 3.9z" fill="#9c040e" stroke="#9c040e"/><path d="m0 304.9v70.3l57.4-21.1z" fill="#590407" stroke="#590407"/><path d="m0 169.6 51.4 32 23.3-68.3z" fill="#d40d0a" stroke="#d40d0a"/><path d="m34.4 83.3-34.4 86.3 74.7-36.3z" fill="#aa050e" stroke="#aa050e"/><path d="m0 14.2v61.1l34.4 8z" fill="#4c0403" stroke="#4c0403"/><path d="m106.7 0h-37.3l-7 27.2z" fill="#80040d" stroke="#80040d"/><path d="m0 375.2v38.2h61.4z" fill="#9c040e" stroke="#9c040e"/><path d="m12.4 578.8 23 21.2 37.3-94.3z" fill="#aa050e" stroke="#aa050e"/><path d="m0 14.2 34.4 69.1 28-56.1z" fill="#8e040e" stroke="#8e040e"/><path d="m34.4 83.3-34.4-8v94.3z" fill="#c60a0c" stroke="#c60a0c"/><path d="m0 413.4v88.1l53.4-.8z" fill="#66040a" stroke="#66040a"/><path d="m0 501.5v33.2l53.4-34z" fill="#b8070d" stroke="#b8070d"/><path d="m12.4 578.8 60.3-73.1-19.3-5z" fill="#8e040e" stroke="#8e040e"/><path d="m0 534.7v13.1l53.4-47.1z" fill="#b8070d" stroke="#b8070d"/><path d="m0 0v14.2l62.4 13z" fill="#66040a" stroke="#66040a"/><path d="m0 547.8 12.4 31 41-78.1z" fill="#d40d0a" stroke="#d40d0a"/><path d="m69.4 0h-69.4l62.4 27.2z" fill="#b8070d" stroke="#b8070d"/><path d="m0 547.8v52.2l12.4-21.2z" fill="#c60a0c" stroke="#c60a0c"/><path d="m12.4 578.8-12.4 21.2h35.4z" fill="#80040d" stroke="#80040d"/></g></svg>